<?xml version="1.0" standalone="no"?>
<!DOCTYPE svg PUBLIC "-//W3C//DTD SVG 20010904//EN" "http://www.w3.org/TR/2001/REC-SVG-20010904/DTD/svg10.dtd">
<svg
  version="1.0"
  xmlns="http://www.w3.org/2000/svg"
  width="1806.000000pt"
  height="953.000000pt"
  viewBox="0 0 1806.000000 953.000000"
  preserveAspectRatio="xMidYMid meet"
>
  <g
    transform="translate(0.000000,953.000000) scale(0.100000,-0.100000)"
    fill="#000000"
    stroke="none"
  >
    <path
      d="M14055 9515 c-169 -38 -283 -101 -411 -229 -106 -107 -160 -192 -205
-326 -27 -80 -33 -115 -37 -216 -10 -252 61 -456 218 -627 183 -199 400 -289
663 -274 173 10 309 60 446 165 229 175 344 429 328 725 -7 128 -25 201 -73
305 -111 242 -337 425 -586 476 -93 19 -260 20 -343 1z"
    />
    <path
      d="M0 5800 l0 -3600 650 0 650 0 0 3600 0 3600 -650 0 -650 0 0 -3600z"
    />
    <path
      d="M15730 8355 l0 -955 -335 0 -335 0 0 -565 0 -565 335 0 335 0 0
-2035 0 -2035 650 0 650 0 0 2035 0 2035 390 0 390 0 -2 563 -3 562 -387 3
-388 2 0 955 0 955 -650 0 -650 0 0 -955z"
    />
    <path
      d="M4187 7519 c-439 -34 -865 -174 -1207 -396 -295 -192 -583 -477 -778
-769 -216 -324 -359 -702 -417 -1104 -113 -791 55 -1547 468 -2102 472 -633
1123 -993 1932 -1068 143 -13 528 -13 675 0 585 53 1069 237 1465 557 124 100
315 294 423 431 89 112 106 138 94 146 -23 14 -1077 506 -1084 506 -5 0 -41
-28 -79 -62 -225 -201 -515 -347 -814 -409 -129 -26 -455 -37 -606 -19 -125
14 -296 56 -404 99 -300 119 -562 363 -703 654 -66 135 -131 341 -132 415 l0
22 2090 0 2090 0 0 218 c0 771 -172 1344 -558 1862 -174 232 -472 500 -724
650 -485 288 -1093 418 -1731 369z m618 -1123 c484 -90 908 -439 1060 -874
l23 -67 -1400 -3 c-771 -1 -1404 0 -1407 3 -8 8 105 225 169 323 80 123 173
235 244 295 215 179 488 296 786 337 101 14 421 5 525 -14z"
    />
    <path
      d="M9723 7520 c-433 -42 -822 -191 -1162 -445 -418 -312 -715 -725 -880
-1223 -184 -555 -196 -1278 -31 -1848 163 -565 528 -1066 1020 -1403 369 -253
779 -382 1265 -398 465 -15 872 79 1201 278 107 64 260 177 344 255 36 32 76
68 89 79 l24 20 -6 -180 c-16 -462 -83 -692 -257 -878 -249 -269 -623 -397
-1154 -397 -508 0 -868 117 -1139 370 l-75 70 -716 0 c-394 0 -716 -2 -716 -5
0 -18 83 -221 130 -320 152 -315 381 -596 651 -796 143 -107 215 -152 360
-224 446 -224 938 -315 1634 -302 501 9 850 74 1213 223 465 192 859 540 1065
942 160 311 259 711 297 1201 6 88 10 956 10 2498 l0 2363 -647 -2 -648 -3 -3
-283 -2 -283 -88 77 c-389 342 -772 530 -1222 599 -126 19 -429 27 -557 15z
m806 -1236 c569 -97 997 -529 1103 -1114 25 -138 30 -464 9 -595 -38 -237
-112 -433 -234 -615 -65 -98 -251 -283 -351 -350 -260 -174 -583 -252 -918
-221 -374 33 -641 155 -893 406 -238 237 -371 528 -406 888 -30 311 18 602
141 854 186 381 536 656 940 738 180 37 427 40 609 9z"
    />
    <path
      d="M13577 7393 c-4 -3 -7 -1173 -7 -2600 l0 -2593 655 0 655 0 0 2600 0
2600 -648 0 c-357 0 -652 -3 -655 -7z"
    />
    <path
      d="M13396 1794 c-89 -22 -173 -71 -251 -149 -127 -127 -185 -277 -185
-479 0 -199 51 -334 172 -462 83 -87 156 -134 256 -164 63 -19 90 -22 180 -18
127 6 185 26 285 99 l67 49 0 -60 0 -60 155 0 155 0 0 615 0 615 -155 0 -155
0 0 -66 0 -66 -40 35 c-55 47 -144 93 -215 112 -72 18 -190 18 -269 -1z m328
-295 c70 -26 139 -92 174 -167 24 -51 27 -69 27 -167 0 -98 -3 -116 -26 -166
-36 -76 -90 -133 -157 -166 -76 -37 -202 -39 -273 -4 -74 36 -125 86 -161 158
-27 55 -33 80 -36 153 -5 104 13 175 61 246 36 51 110 108 161 123 59 17 171
12 230 -10z"
    />
    <path
      d="M14975 1791 c-76 -22 -128 -49 -193 -101 l-52 -40 0 65 0 65 -155 0
-155 0 0 -840 0 -840 155 0 155 0 0 286 0 287 33 -27 c104 -85 217 -126 346
-126 190 0 339 77 460 237 159 212 172 543 30 779 -45 74 -160 182 -231 216
-121 59 -273 74 -393 39z m234 -306 c116 -64 173 -169 174 -320 0 -112 -24
-182 -89 -254 -67 -74 -138 -106 -239 -106 -71 0 -88 4 -147 33 -75 37 -124
88 -160 168 -19 41 -23 66 -23 159 0 100 2 115 28 167 35 72 121 152 185 173
31 10 77 14 132 12 72 -3 93 -8 139 -32z"
    />
    <path
      d="M16385 1791 c-76 -22 -128 -49 -193 -101 l-52 -40 0 65 0 65 -155 0
-155 0 0 -840 0 -840 155 0 155 0 2 286 3 287 44 -37 c155 -129 396 -155 580
-61 118 59 246 201 292 324 72 191 62 407 -28 591 -46 95 -169 222 -255 263
-122 58 -273 73 -393 38z m233 -306 c98 -53 154 -135 173 -253 28 -170 -47
-329 -190 -399 -47 -23 -69 -28 -136 -28 -71 0 -88 4 -147 33 -75 37 -124 88
-160 168 -19 42 -23 65 -22 159 0 128 16 175 86 251 73 79 138 105 258 101 72
-3 93 -7 138 -32z"
    />
    <path
      d="M17476 1799 c-21 -5 -65 -23 -98 -41 -177 -94 -238 -311 -133 -477
43 -70 140 -145 268 -211 142 -73 181 -100 202 -140 22 -42 19 -58 -19 -96
-31 -31 -39 -34 -96 -34 -74 0 -145 30 -215 92 l-48 42 -93 -99 c-51 -55 -94
-104 -94 -110 0 -21 124 -126 183 -154 90 -42 157 -54 278 -49 160 7 259 54
340 162 52 68 73 145 67 243 -11 172 -88 258 -348 388 -176 88 -202 115 -170
175 11 20 60 40 99 40 36 0 120 -41 163 -79 20 -17 40 -31 45 -31 4 0 51 43
103 95 l95 95 -63 59 c-100 96 -215 141 -352 140 -41 -1 -92 -5 -114 -10z"
    />
  </g>
</svg>
